<?xml version="1.0" encoding="UTF-8"?>
<svg id="Layer_1" xmlns="http://www.w3.org/2000/svg" viewBox="5 -10 100 100">
    <defs>
        <style>.cls-1{fill:#72be44;}.cls-2{fill:#345094;}</style>
    </defs>
    <g>
        <!-- Green Script Element (f) -->
        <path class="cls-1" d="M72.14,71.11c1.31-3.79,3.44-9.93,6.53-18.12,5.85-.87,9.19-1.42,10.01-1.66,.82-.24,1.24-.44,1.24-.62-.04-.26-.57-.39-1.59-.39s-3.31,.15-6.86,.46c3.34-2.69,6.8-6.05,10.4-10.08,3.6-4.03,5.98-7.3,7.15-9.82,.69-1.47,1.04-2.85,1.04-4.13s-.57-2.39-1.89-3.02c-.31-.15-.96-.38-1.3-.46-.38-.09-1.17-.18-1.56-.19-2.9-.13-5.81,2.19-8.71,6.57-1.3,2.08-2.75,4.87-4.36,8.35-1.6,3.49-2.8,6.32-3.58,8.48l-1.89,4.81h-.19c-.13,0-.37-.17-.72-.52-.35-.35-.78-.52-1.3-.52-.44,0-1.12,.03-1.84,.41-.01,0-.03,.02-.04,.02-.18,.48-.42,1.03-.56,1.29-.14,.26-.46,.68-.77,1.11,.01,.01,.05,.05,.06,.06,.34,.31,.88,.42,1.53,.42s1.65-.09,2.99-.26c-7.24,18.51-11.25,28.5-12.03,29.97-.09,.22-.13,.39-.13,.52,0,.3,.31,.45,.94,.45s1.33-.22,2.11-.65,1.2-.91,1.25-1.03c1.32-2.94,3-8.45,4.05-11.47Zm25.06-41.14c-1.95,3.42-4.64,7.22-8.06,11.38-3.42,4.16-6.65,7.37-9.69,9.62l.52-1.04c.78-2.38,2.56-6.18,5.33-11.38,1.39-2.47,2.97-4.96,4.75-7.48,3.03-4.25,5.37-6.37,7.02-6.37,.82,0,1.24,.56,1.24,1.69s-.37,2.32-1.11,3.58Z"/>

        <g>
            <!-- Blue Circular Crest and Letters (sb) -->
            <path class="cls-2" d="M72.16,51.99c.15-.25,.26-.48,.46-1.02,0-.01,.1-.29,.11-.3,.08-.21,.15-.43,.22-.64,.19-.63,.28-1.25,.28-1.86,0-.26-.02-.54-.06-.85-.13-.78-.74-1.57-1.82-2.37-1.08-.8-2.02-1.2-2.8-1.2-2.38,0-4.87,1.11-7.44,3.32-2.58,2.21-4.67,4.51-6.27,6.89,.48-2.51,1.15-4.55,2.02-6.11,3.51-2.43,7.13-5.39,10.86-8.87,3.73-3.49,6.15-6.38,7.28-8.68,.69-1.34,1.04-2.59,1.04-3.74s-.57-2.2-1.89-2.83c-.31-.15-.97-.36-1.3-.46-.56-.16-1.11-.19-1.63-.19-2.95,0-5.81,2.19-8.58,6.57-1.34,2.08-2.82,4.87-4.42,8.35-1.6,3.49-2.8,6.32-3.58,8.48-.55,1.23-2.27,3.78-5.57,7.76-.03,.04-.11,.13-.12,.14-.68,.7-1.44,1.5-2.27,2.37,.01-.24,.01-.48-.03-.71-.04-.48-.37-1-.98-1.56-.61-.56-1.13-.98-1.56-1.24s-1.17-.67-2.21-1.24c-1.04-.56-1.78-.98-2.21-1.24-1.04-.61-1.56-1.29-1.56-2.05s.28-1.51,.85-2.24c1.43-1.99,3.41-3.62,5.95-4.88,2.54-1.26,4.65-1.89,6.34-1.89h.39c.82,.17,1.17,.65,1.04,1.43-.13,.78-.42,1.4-.88,1.85-.45,.46-.64,.81-.55,1.07,.17,.26,.39,.3,.65,.13,1-.65,1.66-1.34,1.98-2.08,.32-.74,.49-1.39,.49-1.95s-.34-1.14-1.01-1.72c-.67-.59-1.83-.88-3.48-.88-2.6,0-5.48,.95-8.65,2.86-3.16,1.91-4.87,3.78-5.27,6.15-.15,.92,0,2.19,.34,2.73,.44,.71,1.1,1.33,2.27,2.11,.13,.09,.69,.39,1.69,.91,2.12,1.13,3.19,2.17,3.19,3.12,0,1.73-.88,3.44-2.63,5.1s-3.57,2.78-5.43,3.35c-.43,.13-.86,.2-1.27,.2s-.78-.2-1.11-.58c-.32-.39-.21-.91,.36-1.56,.48-.65,.92-1.06,1.33-1.24,.41-.17,.64-.32,.68-.45,.04-.13,.02-.24-.07-.33-.09-.09-.19-.11-.32-.07-.4,.17-.77,.34-1.11,.52-8.7-5-14.58-14.37-14.58-25.1,0-15.96,12.98-28.94,28.94-28.94,10.65,0,19.96,5.78,24.99,14.37,.06,.01,.12,.02,.18,.03,.09,.02,.18,.05,.27,.08,0,0,.97,.34,1.3,.46,.16,.05,.31,.13,.45,.21,2.75,1.61,3.16,3.86,3.16,5.05,0,1.56-.45,3.21-1.33,4.92-.08,.17-.18,.34-.28,.51,.12,1.09,.19,2.19,.19,3.31,0,3.63-.68,7.1-1.91,10.31,.2,.42,.34,.85,.42,1.3,0,.02,0,.04,0,.06l.56-1.43c.78-2.17,2.01-5.09,3.63-8.62,.79-1.73,1.56-3.3,2.29-4.7C80.64,14.87,66.02,1.22,48.26,1.22,29.47,1.22,14.17,16.51,14.17,35.3c0,12.7,6.99,23.79,17.31,29.66,.05,.03,.08,.05,.13,.08,.02,0,.06,.03,.07,.04,.11,.07,.17,.09,.29,.14,.28,.12,.6,.18,.98,.18,.93,0,1.85-.11,2.76-.33,4.03-.91,7.06-2.49,9.1-4.75,.02-.03,.04-.05,.06-.08,0,0,0,0,.01-.01,1.03-.92,2.66-2.35,3.43-3.29,.23-.28,1.15-1.39,1.33-1.61,.02-.02,.04-.06,.06-.08,.64-.81,1.24-1.5,1.77-2.3,.58-.89,.96-1.42,1.14-1.59-.61,2.21-.91,4.31-.91,6.31,0,.69,.13,1.37,.39,2.02,1.04,1.26,1.84,1.32,2.41,.2,.22-.43,.29-.75,.23-.94-.07-.2-.1-.38-.1-.55,0-1.21,.7-2.77,2.11-4.68,1.41-1.91,2.78-3.42,4.13-4.55,3.16-2.73,5.72-4.1,7.67-4.1,.61,0,.99,.31,1.14,.94,.15,.63,.16,1.25,.03,1.85-.87,3.99-3.34,7.41-7.41,10.27-4.2,3.12-7.63,4.68-10.27,4.68-2.43,0-3.29,.17-2.6,.52,.87,.39,2.04,.58,3.51,.58,3.64,0,7.3-1.26,10.99-3.77,2.38-1.56,4.53-3.46,6.44-5.69,.38-.45,.72-.89,1.02-1.33,.2-.28,.59-.84,.77-1.13Zm-1.59-26.05c1.04-.78,1.86-1.17,2.47-1.17,.78,0,1.17,.52,1.17,1.56,0,2.51-2.58,6.37-7.74,11.57-2.99,2.95-5.96,5.4-8.91,7.35,4.2-9.45,8.54-15.89,13-19.31Z"/>

            <g>
                <!-- Gear/Flower Element -->
                <path class="cls-2" d="M56.68,18.98l-.56-.24c-1.45-.62-2.04-2.03-1.46-3.48l.22-.56c1.16-2.89-2.28-4.86-5.57-3.2l-.64,.32c-1.65,.83-3.58,.79-4.76-.1l-.46-.34c-2.37-1.78-6.81,.02-7.21,2.92l-.08,.56c-.2,1.46-1.54,2.82-3.3,3.37l-.68,.21c-3.52,1.1-4.54,4.88-1.65,6.13l.56,.24c1.45,.62,2.04,2.03,1.46,3.48l-.22,.56c-1.16,2.89,2.28,4.86,5.57,3.2l.64-.32c1.65-.83,3.58-.79,4.76,.1l.46,.34c2.37,1.78,6.81-.02,7.21-2.92l.08-.56c.2-1.46,1.54-2.82,3.3-3.37l.68-.21c3.52-1.1,4.54-4.88,1.65-6.13Zm-15.39,11.47c-5.77-.13-9.4-4.11-8.11-8.9,1.29-4.79,7-8.57,12.77-8.44,5.77,.13,9.4,4.11,8.11,8.9-1.29,4.79-7,8.57-12.77,8.44Z"/>
                <path class="cls-2" d="M45.22,15.77c-3.99-.09-7.95,2.53-8.84,5.85-.89,3.32,1.62,6.08,5.62,6.16,3.99,.09,7.95-2.53,8.84-5.85,.89-3.32-1.62-6.08-5.62-6.16Zm1.36,6.07c-.37,1.36-1.99,2.44-3.64,2.4s-2.68-1.17-2.31-2.53c.37-1.36,1.99-2.44,3.64-2.4,1.64,.04,2.68,1.17,2.31,2.53Z"/>
            </g>
        </g>
    </g>
</svg>
